Coordinates
version=1
nRows=13
nColumns=40
inDegrees=yes

Units are S.I. units (second, meters, Newtons, ...)
Angles are in degrees.

endheader
time	pelvis_tilt	pelvis_list	pelvis_rotation	pelvis_tx	pelvis_ty	pelvis_tz	hip_flexion_r	hip_adduction_r	hip_rotation_r	knee_angle_r	knee_angle_r_beta	ankle_angle_r	subtalar_angle_r	mtp_angle_r	hip_flexion_l	hip_adduction_l	hip_rotation_l	knee_angle_l	knee_angle_l_beta	ankle_angle_l	subtalar_angle_l	mtp_angle_l	lumbar_extension	lumbar_bending	lumbar_rotation	arm_flex_r	arm_add_r	arm_rot_r	elbow_flex_r	pro_sup_r	wrist_flex_r	wrist_dev_r	arm_flex_l	arm_add_l	arm_rot_l	elbow_flex_l	pro_sup_l	wrist_flex_l	wrist_dev_l
      0.00000000	     -1.90507087	      0.31889144	     -0.37191523	     -0.69907837	      0.89125857	      1.08445643	     29.42842198	     -5.83554644	    -11.39337812	    -25.07299854	     -0.43760638	      3.28075754	     -9.81174192	     16.74809413	     -2.36992932	     -1.98005836	      9.67081018	    -24.29257913	     -0.42398549	     12.02233097	      1.50335868	     -8.38906600	     -7.01412060	     -4.18625119	    -13.60870141	    -11.37387941	     -8.56907608	    -15.69616114	     20.90788477	     89.95437384	      0.00000000	      0.00000000	      2.24808231	     15.17744281	     15.67812215	     69.74497839	     89.95437384	      0.00000000	      0.00000000
      0.01000000	     -2.35341434	      0.59667941	     -0.01064072	     -0.68657768	      0.88930955	      1.08599655	     30.21126741	     -6.06588297	    -11.90029887	    -22.82242040	     -0.39832638	      3.50835808	     -8.94787631	     16.60944546	     -2.68419694	     -2.03813313	      9.44737210	    -24.42849899	     -0.42635774	     11.90284852	      1.28311035	     -8.38742151	     -6.52646951	     -4.40092766	    -13.86056632	    -11.82182996	     -8.65005195	    -15.89584751	     20.64533965	     89.95437384	      0.00000000	      0.00000000	      2.44479898	     15.54948795	     15.47478341	     70.98587600	     89.95437384	      0.00000000	      0.00000000
      0.02000000	     -2.70925065	      0.46788315	      0.69256643	     -0.67406967	      0.88767627	      1.08741145	     30.56899747	     -6.07962837	    -12.96859998	    -20.61366725	     -0.35977636	      3.60010074	     -6.91376683	     16.20728551	     -2.82518221	     -1.57888510	      8.74704003	    -25.04047554	     -0.43703874	     11.49931020	      0.81546846	     -8.43030225	     -6.16754972	     -4.15176041	    -14.44868889	    -12.06321014	     -8.71004547	    -16.50669520	     20.24660469	     89.95437384	      0.00000000	      0.00000000	      2.66094465	     15.84272409	     15.39424587	     72.05918366	     89.95437384	      0.00000000	      0.00000000
      0.03000000	     -2.85519328	      0.30847382	      1.48945578	     -0.66080809	      0.88615851	      1.08855332	     30.91297475	     -6.49405968	    -15.80465968	    -19.57049282	     -0.34156954	      4.17671501	     -3.34240635	     14.98983363	     -3.21301616	     -0.94134993	      8.55821457	    -25.69957673	     -0.44854223	     11.22860972	     -0.31232926	     -8.77558856	     -5.95566555	     -3.83787109	    -15.09996813	    -12.30618108	     -8.75403440	    -17.43025328	     19.89383944	     89.95437384	      0.00000000	      0.00000000	      2.74069643	     16.08212238	     15.34039984	     73.07420916	     89.95437384	      0.00000000	      0.00000000
      0.04000000	     -3.11076287	      0.28190778	      2.08331420	     -0.64761555	      0.88453499	      1.09001686	     31.29857515	     -6.62547569	    -17.10585462	    -18.72626092	     -0.32683491	      4.16420394	     -2.12641327	     14.30274476	     -3.47460262	     -0.61780639	      7.88192602	    -26.33224915	     -0.45958445	     10.80383300	     -0.40920060	     -8.92458985	     -5.60539968	     -3.70389966	    -15.52148525	    -12.54607308	     -8.83906190	    -17.99934196	     19.53353845	     89.95437384	      0.00000000	      0.00000000	      2.80329678	     16.34521013	     15.17963152	     73.93396881	     89.95437384	      0.00000000	      0.00000000
      0.05000000	     -3.26157568	      0.47688231	      2.23649137	     -0.63383680	      0.88296349	      1.09198914	     31.77614664	     -6.64287573	    -17.07015094	    -18.75779428	     -0.32738527	      4.07890521	     -2.06380455	     14.03652417	     -3.98698778	     -0.56823331	      7.64788887	    -26.81276714	     -0.46797107	     10.48780396	     -0.38687215	     -8.77314953	     -5.25202111	     -3.81634164	    -15.42982178	    -13.04625502	     -8.99605988	    -17.99413396	     19.57163983	     89.95437384	      0.00000000	      0.00000000	      2.96774229	     16.40940347	     15.17594851	     74.36655244	     89.95437384	      0.00000000	      0.00000000
      0.06000000	     -3.26704358	      0.27041968	      3.14965632	     -0.61984689	      0.88185441	      1.09302476	     31.48477740	     -6.67850996	    -18.58171961	    -18.48467550	     -0.32261845	      3.95353606	     -1.99190379	     13.73994158	     -4.30219910	     -0.06159862	      6.32559298	    -27.80628904	     -0.48531130	      9.69891372	     -0.11838575	     -8.74903388	     -5.13875097	     -3.44673505	    -16.25140310	    -12.96597897	     -9.07961884	    -18.82700336	     18.92034958	     89.95437384	      0.00000000	      0.00000000	      2.64560785	     16.74333528	     14.97294632	     75.26329225	     89.95437384	      0.00000000	      0.00000000
      0.07000000	     -3.20280565	      0.26323690	      3.63231007	     -0.60538776	      0.88078500	      1.09455691	     31.31214233	     -6.64705206	    -18.99964545	    -19.03249987	     -0.33217979	      3.92185922	     -2.31967429	     13.42501984	     -4.78955952	      0.21696912	      5.51850782	    -28.67685894	     -0.50050561	      8.93699701	      0.31838492	     -8.59639752	     -5.01246511	     -3.29938679	    -16.53386000	    -13.10945189	     -9.21849982	    -19.21305389	     18.57212791	     89.95437384	      0.00000000	      0.00000000	      2.39374459	     16.94118634	     14.81881607	     75.82905127	     89.95437384	      0.00000000	      0.00000000
      0.08000000	     -3.07480987	      0.28267611	      4.06961704	     -0.59061561	      0.87997393	      1.09584862	     30.92133790	     -6.54693696	    -18.97044632	    -19.75805480	     -0.34484311	      3.54711869	     -3.30442195	     13.21578524	     -5.33797971	      0.30344165	      4.19284743	    -29.59666525	     -0.51655926	      8.23762849	      1.23654553	     -8.49649791	     -4.91605687	     -3.13264071	    -16.80701691	    -13.10644219	     -9.37776219	    -19.90792849	     18.12278248	     89.95437384	      0.00000000	      0.00000000	      2.05248587	     16.90070936	     14.92020412	     76.22465209	     89.95437384	      0.00000000	      0.00000000
      0.09000000	     -2.99336707	      0.30210951	      4.27162873	     -0.57578757	      0.87898180	      1.09746922	     30.65967976	     -6.34183884	    -18.37406950	    -20.95889681	     -0.36580176	      3.21081706	     -3.61584996	     12.83025598	     -5.72309573	      0.48801198	      3.53975708	    -30.67710203	     -0.53541644	      7.08303695	      1.61025993	     -8.17421533	     -4.76037070	     -2.95597278	    -16.68249052	    -13.33336796	     -9.60184647	    -19.91040887	     18.04097864	     89.95437384	      0.00000000	      0.00000000	      1.75691042	     16.90526595	     14.72502798	     76.43495119	     89.95437384	      0.00000000	      0.00000000
      0.10000000	     -2.82771160	      0.29874084	      4.61362536	     -0.56082207	      0.87846476	      1.09885120	     29.96837261	     -5.91477141	    -17.17399856	    -21.52672820	     -0.37571228	      1.65049926	     -6.68915520	     13.05799074	     -6.11442182	      0.56088697	      2.37152609	    -31.82579167	     -0.55546485	      5.64516784	      3.72327149	     -8.09173429	     -4.68539354	     -2.73772168	    -16.85449005	    -12.97252973	     -9.76364005	    -20.75485801	     17.19581737	     89.95437384	      0.00000000	      0.00000000	      1.23821240	     16.90831829	     14.69612741	     76.57728042	     89.95437384	      0.00000000	      0.00000000
      0.11000000	     -2.69612737	      0.21238494	      4.70172888	     -0.54576498	      0.87790702	      1.10082128	     29.66602384	     -5.69365567	    -17.07301747	    -22.64100739	     -0.39516012	      0.32987704	     -7.35437537	     12.93281451	     -6.36127943	      0.91862140	      2.04521080	    -33.06684478	     -0.57712531	      3.79609538	      4.22550940	     -7.77518848	     -4.54132751	     -2.44065089	    -16.61664183	    -12.84813854	     -9.97638884	    -20.77047576	     16.70335200	     89.95437384	      0.00000000	      0.00000000	      0.82868301	     16.86379920	     14.51672533	     76.42313052	     89.95437384	      0.00000000	      0.00000000
      0.12000000	     -2.59098282	      0.00812083	      4.68727645	     -0.53100257	      0.87768659	      1.10308600	     29.56753499	     -5.36884286	    -16.59259905	    -24.16559160	     -0.42176914	     -0.26584670	     -8.15745269	     12.62892239	     -6.42103249	      1.40207030	      1.69607334	    -34.48114536	     -0.60180952	      1.73791913	      4.64900605	     -7.41195221	     -4.38248136	     -2.00236862	    -16.25140180	    -12.57407249	    -10.17087279	    -20.82589890	     16.18055818	     89.95437384	      0.00000000	      0.00000000	      0.44961601	     16.73306849	     14.37221187	     76.00094329	     89.95437384	      0.00000000	      0.00000000
